<svg width="26" height="25" fill="none" xmlns="http://www.w3.org/2000/svg"><path opacity=".2" fill-rule="evenodd" clip-rule="evenodd" d="M13 24.538c7.18 0 13-5.493 13-12.27C26 5.494 20.18 0 13 0S0 5.493 0 12.269s5.82 12.269 13 12.269zm.307-19.808c3.777.016 5.47 1.184 5.889 1.551 1.39 1.15 2.161 3.694 1.64 7.723-.455 3.554-3.06 4.184-3.936 4.396a3.963 3.963 0 00-.205.053c-.238.072-2.317.567-5.025.351-.3.33-.696.762-.982 1.056a13.13 13.13 0 00-.246.26c-.391.423-.692.747-1.148.611-.455-.132-.428-.786-.428-.786l.003-1.617h-.003c-3.958-1.059-3.902-4.963-3.856-7.046.046-2.084.471-3.767 1.677-4.913 2.169-1.893 6.62-1.639 6.62-1.639zm3.147 12.539c.745-.165 2.817-.625 3.2-3.56.438-3.361-.162-5.655-1.338-6.613-.356-.307-1.885-1.222-5.078-1.235 0 0-3.78-.235-5.615 1.347-1.021.96-1.367 2.385-1.403 4.124l-.005.185c-.041 1.78-.114 4.908 3.125 5.761 0 0-.013 2.47-.013 2.686-.003.329.188.344.362.178.534-.51 2.248-2.475 2.248-2.475 2.296.14 4.125-.292 4.323-.351.046-.014.112-.029.194-.047zm-1.806-6.072c.014.27.439.25.425-.019-.046-.9-.556-1.4-1.476-1.447-.28-.016-.306.388-.023.404.699.037 1.038.373 1.074 1.062zm-1.403-2.15c1.657.117 2.53 1.157 2.497 2.485-.006.267.422.279.425.01.037-1.517-.982-2.767-2.893-2.899-.28-.018-.31.386-.03.405zm3.621 2.908c0 .27.428.267.425-.003-.023-2.75-1.977-4.346-4.405-4.361-.28 0-.28.4 0 .404 2.171.016 3.96 1.407 3.98 3.96zm.053 3.077v-.006c.158-.289.105-.561-.125-.74-.41-.366-1.025-.77-1.51-1.03-.359-.192-.725-.073-.876.115l-.316.376c-.162.191-.462.166-.462.166-2.191-.532-2.778-2.64-2.778-2.64s-.026-.286.175-.44l.396-.3c.197-.144.322-.492.121-.834a9.334 9.334 0 00-.5-.745 18.753 18.753 0 00-.584-.693c-.194-.222-.484-.272-.787-.122h-.007c-.63.338-1.318.971-1.097 1.623 0 0 .155.539.857 1.745a9.993 9.993 0 001.015 1.46c.375.454.863.928 1.397 1.329 1.034.783 2.672 1.585 3.367 1.77l.007.01c.685.21 1.35-.449 1.707-1.044z" fill="#fff"/></svg>