<svg width="26" height="26" fill="none" xmlns="http://www.w3.org/2000/svg"><path opacity=".2" d="M13 0C5.82 0 0 5.82 0 13s5.82 13 13 13 13-5.82 13-13S20.18 0 13 0zm5 14.667s1.15 1.135 1.432 1.661a.112.112 0 01.015.028c.115.193.142.344.085.456-.094.187-.42.279-.53.287H16.97c-.14 0-.436-.037-.793-.283-.275-.192-.546-.508-.81-.815-.394-.458-.735-.853-1.08-.853a.413.413 0 00-.128.02c-.26.084-.593.455-.593 1.444 0 .308-.244.486-.416.486h-.93c-.317 0-1.968-.111-3.43-1.654C7 13.555 5.388 9.766 5.375 9.731c-.102-.245.108-.376.337-.376h2.051c.274 0 .363.166.426.314.073.172.34.856.781 1.625.714 1.254 1.151 1.763 1.502 1.763.066 0 .13-.018.188-.049.458-.254.372-1.886.352-2.225 0-.063-.001-.73-.236-1.05-.168-.23-.453-.319-.627-.351a.744.744 0 01.27-.23c.314-.156.88-.18 1.442-.18h.313c.61.009.766.048.987.104.447.107.457.395.417 1.382-.012.28-.024.597-.024.971 0 .081-.004.168-.004.26-.014.503-.03 1.073.325 1.307a.3.3 0 00.154.045c.123 0 .494 0 1.5-1.724.31-.555.578-1.132.805-1.725.02-.036.08-.144.15-.186a.36.36 0 01.168-.04h2.412c.263 0 .443.04.477.142.06.16-.011.652-1.112 2.143l-.492.649c-.998 1.308-.998 1.374.063 2.367z" fill="#fff"/></svg>