<svg width="26" height="25" fill="none" xmlns="http://www.w3.org/2000/svg"><path opacity=".2" fill-rule="evenodd" clip-rule="evenodd" d="M13 24.538c7.18 0 13-5.493 13-12.27C26 5.494 20.18 0 13 0S0 5.493 0 12.269s5.82 12.269 13 12.269zm-.003-18.875c1.853 0 3.597.68 4.906 1.92C19.213 8.82 20 10.462 20 12.212c0 3.61-3.181 6.547-7.003 6.547h-.003a7.245 7.245 0 01-3.316-.796L6 18.875l.984-3.392a6.273 6.273 0 01-.925-3.273c0-3.61 3.113-6.548 6.938-6.548zm-2.938 11.236c.885.495 1.9.758 2.938.758 3.178 0 5.831-2.442 5.831-5.444.003-1.454-.665-2.82-1.753-3.849-1.087-1.03-2.534-1.596-4.075-1.596-3.181 0-5.769 2.442-5.769 5.442 0 1.029.303 2.029.882 2.896l.137.206-.581 2.009 2.181-.54.21.118zm4.916-3.849c.16.053 1.013.449 1.184.531l.08.037c.128.057.214.096.248.158.044.068.044.395-.1.778-.143.384-.834.732-1.168.779-.55.077-.981.038-2.082-.41-1.62-.662-2.716-2.14-2.93-2.428a2.02 2.02 0 00-.032-.043l-.008-.01c-.108-.14-.698-.899-.698-1.683 0-.752.39-1.147.571-1.33l.035-.036a.66.66 0 01.463-.203 5.929 5.929 0 01.371.006c.1 0 .227 0 .35.28l.168.384c.155.356.336.773.367.83.043.084.072.178.015.287-.147.278-.3.428-.407.535-.135.133-.2.198-.102.359.672 1.088 1.34 1.465 2.36 1.946.171.083.274.068.374-.041.103-.112.435-.478.55-.643.116-.165.232-.139.391-.083z" fill="#fff"/></svg>