<svg width="26" height="25" viewBox="0 0 26 25" fill="none" xmlns="http://www.w3.org/2000/svg">
<path opacity="0.2" fill-rule="evenodd" clip-rule="evenodd" d="M13 24.5375C20.1797 24.5375 26 19.0446 26 12.2687C26 5.49291 20.1797 0 13 0C5.8203 0 0 5.49291 0 12.2687C0 19.0446 5.8203 24.5375 13 24.5375ZM13.3073 4.7301C17.0835 4.74577 18.7772 5.91443 19.1957 6.28101C20.5862 7.43088 21.3573 9.97499 20.8366 14.0042C20.3807 17.5577 17.7762 18.1882 16.8998 18.4003C16.8134 18.4213 16.7438 18.4381 16.6947 18.4533C16.4574 18.5254 14.3782 19.0204 11.6696 18.8042C11.3698 19.1332 10.9744 19.5656 10.6877 19.8601C10.6009 19.9489 10.5196 20.0366 10.4419 20.1205C10.0506 20.5428 9.75021 20.867 9.29387 20.7311C8.83914 20.5995 8.8655 19.9447 8.8655 19.9447L8.8688 18.328H8.8655C4.90808 17.269 4.9641 13.3651 5.01023 11.2815C5.05636 9.19797 5.48143 7.51547 6.68744 6.36874C8.85562 4.47631 13.3073 4.7301 13.3073 4.7301ZM16.4541 17.269C17.1994 17.1036 19.2709 16.644 19.6537 13.7097C20.0919 10.3478 19.4922 8.05437 18.3159 7.09563C17.96 6.78858 16.4311 5.8737 13.2381 5.86117C13.2381 5.86117 9.45862 5.62618 7.62325 7.20842C6.60176 8.16717 6.25578 9.59275 6.21953 11.3316C6.21829 11.3915 6.21685 11.4532 6.21537 11.5166C6.17389 13.2964 6.10096 16.4252 9.34 17.2784C9.34 17.2784 9.32682 19.7473 9.32682 19.9635C9.32352 20.2925 9.51464 20.3081 9.68928 20.1421C10.2231 19.6314 11.9365 17.6669 11.9365 17.6669C14.2332 17.8079 16.062 17.3755 16.2597 17.316C16.3056 17.3019 16.3718 17.2873 16.4541 17.269ZM14.6484 11.1969C14.6616 11.4664 15.0867 11.4476 15.0735 11.1781C15.0274 10.2789 14.5166 9.77761 13.5973 9.73061C13.3172 9.71494 13.2908 10.1191 13.5742 10.1348C14.2728 10.1724 14.6122 10.5076 14.6484 11.1969ZM13.2447 9.04758C14.9021 9.16351 15.7753 10.2037 15.7424 11.5322C15.7358 11.7985 16.1642 11.811 16.1675 11.5416C16.2037 10.0251 15.1855 8.775 13.2744 8.6434C12.9943 8.62461 12.9646 9.02878 13.2447 9.04758ZM16.866 11.9551C16.866 12.2246 17.2944 12.2215 17.2911 11.952C17.268 9.20111 15.314 7.60633 12.8855 7.59067C12.6055 7.59067 12.6055 7.99171 12.8855 7.99484C15.057 8.01051 16.8463 9.40163 16.866 11.9551ZM16.9187 15.0319V15.0256C17.0769 14.7374 17.0242 14.4648 16.7935 14.2862C16.3849 13.9196 15.7688 13.5155 15.2844 13.2554C14.9252 13.0643 14.5595 13.1833 14.4079 13.3713L14.0915 13.7473C13.9301 13.9384 13.6302 13.9134 13.6302 13.9134C11.439 13.3807 10.8525 11.2721 10.8525 11.2721C10.8525 11.2721 10.8261 10.987 11.0271 10.8335L11.4225 10.5327C11.6202 10.3886 11.7454 10.0408 11.5444 9.69928C11.4291 9.50815 11.2083 9.16664 11.0436 8.95359C10.8689 8.72487 10.4603 8.26116 10.4603 8.26116C10.2659 8.03871 9.97596 7.98858 9.6728 8.13897H9.66621C9.03685 8.47735 8.34817 9.11024 8.56894 9.76194C8.56894 9.76194 8.72381 10.3008 9.42567 11.5071C9.75848 12.0836 10.1012 12.563 10.4406 12.9672C10.8162 13.4215 11.3039 13.8946 11.8377 14.2956C12.8724 15.0789 14.51 15.881 15.2053 16.0658L15.2119 16.0752C15.8973 16.2852 16.5629 15.6272 16.9187 15.0319Z" fill="white"/>
</svg>
