<svg width="26" height="25" viewBox="0 0 26 25" fill="none" xmlns="http://www.w3.org/2000/svg">
<path opacity="0.2" fill-rule="evenodd" clip-rule="evenodd" d="M13 24.5375C20.1797 24.5375 26 19.0446 26 12.2687C26 5.49291 20.1797 0 13 0C5.8203 0 0 5.49291 0 12.2687C0 19.0446 5.8203 24.5375 13 24.5375ZM12.9969 5.6625C14.85 5.6625 16.5938 6.34377 17.9031 7.58244C19.2125 8.82111 20 10.4638 20 12.2127C20 15.8226 16.8188 18.76 12.9969 18.76H12.9937C11.8313 18.76 10.6906 18.4857 9.67812 17.9637L6 18.875L6.98438 15.4834C6.37813 14.4895 6.05937 13.3629 6.05937 12.2098C6.05937 8.59992 9.17188 5.6625 12.9969 5.6625ZM10.0594 16.899C10.9437 17.3945 11.9594 17.657 12.9969 17.657C16.175 17.657 18.8281 15.215 18.8281 12.2127C18.8312 10.7587 18.1625 9.39326 17.075 8.36398C15.9875 7.33471 14.5406 6.76846 13 6.76846C9.81875 6.76846 7.23125 9.21041 7.23125 12.2098C7.23125 13.239 7.53437 14.2388 8.1125 15.1059L8.25 15.3123L7.66875 17.3208L9.85 16.7811L10.0594 16.899ZM14.975 13.0503C15.1344 13.1034 15.9875 13.4986 16.1594 13.5812C16.1875 13.5942 16.2142 13.6062 16.2392 13.6175C16.3671 13.6752 16.4535 13.7141 16.4875 13.7758C16.5312 13.8436 16.5312 14.171 16.3875 14.5544C16.2437 14.9378 15.5531 15.2858 15.2188 15.333C14.6687 15.4097 14.2375 15.3713 13.1375 14.923C11.5166 14.2612 10.4215 12.7835 10.2078 12.4952C10.192 12.4739 10.181 12.4591 10.175 12.4516C10.1728 12.4488 10.1703 12.4455 10.1674 12.4418C10.0588 12.302 9.46875 11.543 9.46875 10.7587C9.46875 10.0066 9.85876 9.61219 10.04 9.42889C10.0528 9.41599 10.0645 9.40413 10.075 9.39326C10.2344 9.23105 10.4219 9.18976 10.5375 9.18976C10.6531 9.18976 10.7688 9.18977 10.8688 9.19566C10.8816 9.19638 10.8951 9.19636 10.909 9.19633C11.0098 9.19617 11.1358 9.19596 11.2594 9.47584C11.3018 9.57255 11.362 9.71096 11.4269 9.86011C11.5816 10.2159 11.7629 10.6327 11.7937 10.6909C11.8375 10.7735 11.8656 10.8679 11.8094 10.977C11.6621 11.2551 11.5098 11.4054 11.4018 11.512C11.2669 11.6451 11.2011 11.7101 11.3 11.8706C11.9719 12.9589 12.6406 13.3364 13.6594 13.8171C13.8313 13.8997 13.9344 13.8849 14.0344 13.7758C14.1375 13.6637 14.4688 13.298 14.5844 13.1329C14.7 12.9677 14.8156 12.9943 14.975 13.0503Z" fill="white"/>
</svg>
